<svg width="128" height="128" viewBox="0 0 128 128" fill="none" xmlns="http://www.w3.org/2000/svg">
<g clip-path="url(#clip0_75_3)">
<rect width="128" height="128" fill="#F9F7F5"/>
<path d="M122 0H6C2.68629 0 0 2.68629 0 6V122C0 125.314 2.68629 128 6 128H122C125.314 128 128 125.314 128 122V6C128 2.68629 125.314 0 122 0Z" fill="white"/>
<path d="M57.4238 90.5332H78.9473V118.662C76.1022 119.602 73.1458 120.357 70.0781 120.926C67.0104 121.47 63.5345 121.742 59.6504 121.742C54.2572 121.742 49.6803 120.678 45.9199 118.551C42.1595 116.423 39.3021 113.281 37.3477 109.125C35.3932 104.969 34.416 99.86 34.416 93.7988C34.416 88.1087 35.5046 83.1855 37.6816 79.0293C39.8835 74.873 43.0872 71.6569 47.293 69.3809C51.5234 67.1048 56.6816 65.9668 62.7676 65.9668C65.6374 65.9668 68.4701 66.276 71.2656 66.8945C74.0612 67.513 76.597 68.3171 78.873 69.3066L75.0508 78.5098C73.3932 77.6686 71.5007 76.9635 69.373 76.3945C67.2454 75.8255 65.0189 75.541 62.6934 75.541C59.3535 75.541 56.4466 76.3079 53.9727 77.8418C51.5234 79.3757 49.6185 81.528 48.2578 84.2988C46.9219 87.0449 46.2539 90.2858 46.2539 94.0215C46.2539 97.5592 46.7363 100.701 47.7012 103.447C48.666 106.169 50.1875 108.309 52.2656 109.867C54.3438 111.401 57.0527 112.168 60.3926 112.168C62.0254 112.168 63.3984 112.094 64.5117 111.945C65.6497 111.772 66.7135 111.599 67.7031 111.426V100.107H57.4238V90.5332ZM103.909 66.7461C110.91 66.7461 116.019 68.2552 119.235 71.2734C122.451 74.2669 124.059 78.3984 124.059 83.668C124.059 86.043 123.7 88.319 122.983 90.4961C122.265 92.6484 121.09 94.5658 119.457 96.248C117.849 97.9303 115.697 99.2663 113 100.256C110.304 101.221 106.976 101.703 103.018 101.703H98.0823V121H86.5784V66.7461H103.909ZM103.315 76.1719H98.0823V92.2773H101.868C104.02 92.2773 105.888 91.9928 107.471 91.4238C109.054 90.8548 110.279 89.9642 111.145 88.752C112.011 87.5397 112.444 85.9811 112.444 84.0762C112.444 81.4043 111.701 79.4251 110.217 78.1387C108.733 76.8275 106.432 76.1719 103.315 76.1719Z" fill="black"/>
</g>
<defs>
<clipPath id="clip0_75_3">
<rect width="128" height="128" fill="white"/>
</clipPath>
</defs>
</svg>
