<svg width="128" height="128" viewBox="0 0 128 128" fill="none" xmlns="http://www.w3.org/2000/svg">
<g clip-path="url(#clip0_75_3)">
<rect width="128" height="128" rx="20" fill="#F9F7F5"/>
<path d="M122 0H6C2.68629 0 0 2.68629 0 6V122C0 125.314 2.68629 128 6 128H122C125.314 128 128 125.314 128 122V6C128 2.68629 125.314 0 122 0Z" fill="white"/>
<path d="M40.2798 84.9165H67.1841V120.078C63.6278 121.253 59.9323 122.196 56.0977 122.907C52.263 123.588 47.9181 123.928 43.063 123.928C36.3215 123.928 30.6004 122.598 25.8999 119.938C21.1994 117.279 17.6276 113.352 15.1846 108.156C12.7415 102.961 11.52 96.575 11.52 88.9985C11.52 81.8859 12.8807 75.7319 15.6021 70.5366C18.3543 65.3413 22.359 61.3211 27.6162 58.4761C32.9043 55.631 39.3521 54.2085 46.9595 54.2085C50.5467 54.2085 54.0876 54.5951 57.582 55.3682C61.0765 56.1413 64.2463 57.1463 67.0913 58.3833L62.3135 69.8872C60.2415 68.8358 57.8758 67.9544 55.2163 67.2432C52.5568 66.5319 49.7736 66.1763 46.8667 66.1763C42.6919 66.1763 39.0583 67.1349 35.9658 69.0522C32.9043 70.9696 30.5231 73.66 28.8223 77.1235C27.1523 80.5562 26.3174 84.6073 26.3174 89.2769C26.3174 93.6991 26.9204 97.6265 28.1265 101.059C29.3325 104.461 31.2344 107.136 33.832 109.084C36.4297 111.001 39.8159 111.96 43.9907 111.96C46.0317 111.96 47.748 111.867 49.1396 111.682C50.5622 111.465 51.8919 111.249 53.1289 111.032V96.8843H40.2798V84.9165ZM98.3856 55.1826C107.137 55.1826 113.523 57.069 117.543 60.8418C121.564 64.5837 123.574 69.748 123.574 76.335C123.574 79.3037 123.125 82.1488 122.228 84.8701C121.332 87.5605 119.863 89.9572 117.822 92.0601C115.812 94.1629 113.121 95.8328 109.75 97.0698C106.38 98.2759 102.22 98.8789 97.2724 98.8789H91.1029V123H76.723V55.1826H98.3856ZM97.6435 66.9648H91.1029V87.0967H95.8344C98.5248 87.0967 100.86 86.741 102.839 86.0298C104.818 85.3185 106.349 84.2052 107.431 82.6899C108.513 81.1746 109.055 79.2264 109.055 76.8452C109.055 73.5054 108.127 71.0314 106.271 69.4233C104.416 67.7843 101.54 66.9648 97.6435 66.9648Z" fill="black"/>
</g>
<defs>
<clipPath id="clip0_75_3">
<rect width="128" height="128" rx="20" fill="white"/>
</clipPath>
</defs>
</svg>
