<svg width="145" height="34" viewBox="0 0 145 34" fill="none" xmlns="http://www.w3.org/2000/svg">
<g clip-path="url(#clip0_1_606)">
<path d="M52.0679 24.3918H45.4673C43.9596 24.3918 42.7937 23.9772 41.9695 23.1479C41.1454 22.3186 40.7314 21.1652 40.7314 19.6914V13.6226C40.7314 12.1262 41.1454 10.969 41.9695 10.151C42.7937 9.33304 43.9596 8.92218 45.4673 8.92218H47.9738C49.4816 8.92218 50.6513 9.33304 51.4906 10.151C52.3261 10.969 52.7439 12.1262 52.7439 13.6226V17.475C52.7439 17.8406 52.5616 18.0215 52.1932 18.0215H44.0014C43.7773 18.0215 43.6633 18.1233 43.6633 18.3268V19.6311C43.6633 21.1087 44.4077 21.8437 45.8965 21.8437H52.0679C52.4363 21.8437 52.6186 22.0246 52.6186 22.3903V23.9056C52.6186 24.2297 52.4363 24.3918 52.0679 24.3918ZM43.9976 15.9597H49.4702C49.6753 15.9597 49.774 15.8579 49.774 15.6543V13.7131C49.774 12.9441 49.5993 12.3825 49.2537 12.0282C48.9081 11.6738 48.346 11.4967 47.5751 11.4967H45.8965C45.1217 11.4967 44.5596 11.6738 44.214 12.0282C43.8684 12.3825 43.6937 12.9441 43.6937 13.7131V15.6543C43.6937 15.8579 43.7963 15.9597 43.9976 15.9597Z" fill="white"/>
<path d="M60.0737 24.3918H58.1482C57.8026 24.3918 57.6279 24.2184 57.6279 23.8754V9.43859C57.6279 9.09557 57.8026 8.92218 58.1482 8.92218H60.0737C60.4193 8.92218 60.594 9.09557 60.594 9.43859V10.5317H60.7155C61.2055 9.4612 62.2347 8.92595 63.8032 8.92595H65.1476C66.6363 8.92595 67.7757 9.32928 68.5694 10.1397C69.3631 10.9501 69.7619 12.1111 69.7619 13.6264V23.8792C69.7619 24.2222 69.5796 24.3956 69.2112 24.3956H67.2857C66.9401 24.3956 66.7654 24.2222 66.7654 23.8792V13.747C66.7654 12.2506 66.0211 11.5042 64.5361 11.5042H63.1006C61.4295 11.5042 60.594 12.3636 60.594 14.0825V23.8792C60.594 24.2222 60.4193 24.3956 60.0737 24.3956V24.3918Z" fill="white"/>
<path d="M85.9898 24.3918H79.3892C77.8814 24.3918 76.7155 23.9772 75.8914 23.1479C75.0673 22.3186 74.6533 21.1652 74.6533 19.6914V13.6226C74.6533 12.1262 75.0673 10.969 75.8914 10.151C76.7155 9.33304 77.8814 8.92218 79.3892 8.92218H81.8957C83.4034 8.92218 84.5732 9.33304 85.4125 10.151C86.248 10.969 86.6658 12.1262 86.6658 13.6226V17.475C86.6658 17.8406 86.4835 18.0215 86.1151 18.0215H77.9232C77.6992 18.0215 77.5852 18.1233 77.5852 18.3268V19.6311C77.5852 21.1087 78.3296 21.8437 79.8183 21.8437H85.9898C86.3581 21.8437 86.5404 22.0246 86.5404 22.3903V23.9056C86.5404 24.2297 86.3581 24.3918 85.9898 24.3918ZM77.9194 15.9597H83.3921C83.5971 15.9597 83.6959 15.8579 83.6959 15.6543V13.7131C83.6959 12.9441 83.5212 12.3825 83.1756 12.0282C82.83 11.6738 82.2679 11.4967 81.497 11.4967H79.8183C79.0436 11.4967 78.4815 11.6738 78.1359 12.0282C77.7903 12.3825 77.6156 12.9441 77.6156 13.7131V15.6543C77.6156 15.8579 77.7181 15.9597 77.9194 15.9597Z" fill="white"/>
<path d="M93.9956 24.3918H92.0701C91.7245 24.3918 91.5498 24.2184 91.5498 23.8754V9.43859C91.5498 9.09557 91.7245 8.92218 92.0701 8.92218H93.9956C94.3412 8.92218 94.5159 9.09557 94.5159 9.43859V10.592H94.6374C94.8425 10.0869 95.2337 9.6836 95.8147 9.37828C96.3958 9.07296 97.0414 8.92218 97.7554 8.92218H98.8872C99.2328 8.92218 99.4075 9.09557 99.4075 9.43859V11.018C99.4075 11.4024 99.2328 11.5645 98.8872 11.5042H97.0528C95.3628 11.5042 94.5159 12.424 94.5159 14.2634V23.8792C94.5159 24.2222 94.3412 24.3956 93.9956 24.3956V24.3918Z" fill="white"/>
<path d="M109.001 23.6342H107.626C106.16 23.6342 105.032 23.2233 104.25 22.4053C103.463 21.5874 103.072 20.4302 103.072 18.9299V13.6226C103.072 12.1262 103.49 10.969 104.326 10.151C105.161 9.33304 106.323 8.92218 107.808 8.92218H114.652C115.02 8.92218 115.202 9.09557 115.202 9.43859V24.4521C115.202 25.9297 114.781 27.0756 113.934 27.8936C113.087 28.7115 111.921 29.1224 110.432 29.1224H104.686C104.341 29.1224 104.166 28.9603 104.166 28.6362V27.0605C104.166 26.7175 104.341 26.5441 104.686 26.5441H109.973C111.462 26.5441 112.206 25.794 112.206 24.2976V21.9945H112.084C111.576 23.0876 110.546 23.6342 108.997 23.6342H109.001ZM112.21 18.4776V11.8058C112.21 11.6022 112.096 11.5042 111.872 11.5042H108.233C106.787 11.5042 106.065 12.2506 106.065 13.747V18.7829C106.065 20.2794 106.787 21.0257 108.233 21.0257H109.699C111.37 21.0257 112.206 20.1776 112.206 18.4776H112.21Z" fill="white"/>
<path d="M131.583 24.3918H124.982C123.474 24.3918 122.308 23.9772 121.484 23.1479C120.66 22.3186 120.246 21.1652 120.246 19.6914V13.6226C120.246 12.1262 120.66 10.969 121.484 10.151C122.308 9.33304 123.474 8.92218 124.982 8.92218H127.489C128.996 8.92218 130.166 9.33304 131.005 10.151C131.841 10.969 132.259 12.1262 132.259 13.6226V17.475C132.259 17.8406 132.076 18.0215 131.708 18.0215H123.516C123.292 18.0215 123.178 18.1233 123.178 18.3268V19.6311C123.178 21.1087 123.922 21.8437 125.411 21.8437H131.583C131.951 21.8437 132.133 22.0246 132.133 22.3903V23.9056C132.133 24.2297 131.951 24.3918 131.583 24.3918ZM123.516 15.9597H128.989C129.194 15.9597 129.292 15.8579 129.292 15.6543V13.7131C129.292 12.9441 129.118 12.3825 128.772 12.0282C128.427 11.6738 127.864 11.4967 127.094 11.4967H125.415C124.64 11.4967 124.078 11.6738 123.732 12.0282C123.387 12.3825 123.212 12.9441 123.212 13.7131V15.6543C123.212 15.8579 123.315 15.9597 123.516 15.9597Z" fill="white"/>
<path d="M139.588 24.3918H137.663C137.317 24.3918 137.142 24.2184 137.142 23.8754V9.43859C137.142 9.09557 137.317 8.92218 137.663 8.92218H139.588C139.934 8.92218 140.108 9.09557 140.108 9.43859V10.592H140.23C140.435 10.0869 140.826 9.6836 141.407 9.37828C141.988 9.07296 142.634 8.92218 143.348 8.92218H144.48C144.825 8.92218 145 9.09557 145 9.43859V11.018C145 11.4024 144.825 11.5645 144.48 11.5042H142.645C140.955 11.5042 140.108 12.424 140.108 14.2634V23.8792C140.108 24.2222 139.934 24.3956 139.588 24.3956V24.3918Z" fill="white"/>
<path d="M5.02069 3.07583C5.87646 3.07583 6.5702 2.38728 6.5702 1.53792C6.5702 0.688548 5.87646 0 5.02069 0C4.16493 0 3.47119 0.688548 3.47119 1.53792C3.47119 2.38728 4.16493 3.07583 5.02069 3.07583Z" fill="#00B48F"/>
<path d="M22.9008 34C23.7566 34 24.4503 33.3114 24.4503 32.4621C24.4503 31.6127 23.7566 30.9242 22.9008 30.9242C22.0451 30.9242 21.3513 31.6127 21.3513 32.4621C21.3513 33.3114 22.0451 34 22.9008 34Z" fill="#00B48F"/>
<path d="M7.43229 10.788H0V18.1572C0 26.4838 6.83224 33.2574 15.233 33.2574H21.9893V31.6668H15.233C7.71713 31.6668 1.60267 25.6056 1.60267 18.1572V12.3787H7.43229C9.43374 12.3787 11.2719 13.404 12.3353 15.0663H14.1506C12.9353 12.4654 10.3224 10.7843 7.43229 10.7843V10.788Z" fill="#00B48F"/>
<path d="M12.6923 6.15921H11.3137V7.7499H12.6923C17.1927 7.7499 20.8576 11.3798 20.8576 15.8428V16.2047H5.46509V18.1572C5.46509 23.4985 9.84775 27.8408 15.233 27.8408H16.6116V26.2501H15.233C10.7326 26.2501 7.06776 22.6202 7.06776 18.1572V17.7954H22.4602V15.8428C22.4602 10.5016 18.0776 6.15921 12.6923 6.15921Z" fill="#00B48F"/>
<path d="M15.4076 18.9337H13.8126C15.1342 21.5761 17.6787 23.2158 20.4929 23.2158H27.9252V15.8466C27.9214 7.5162 21.0891 0.742584 12.6922 0.742584H5.93213V2.33327H12.6884C20.2043 2.33327 26.3187 8.39447 26.3187 15.8428V21.6213H20.4891C18.5674 21.6213 16.7976 20.6186 15.6697 18.9337H15.4038" fill="#00B48F"/>
</g>
<defs>
<clipPath id="clip0_1_606">
<rect width="145" height="34" fill="white"/>
</clipPath>
</defs>
</svg>
